<?xml version="1.0" standalone="no"?><!DOCTYPE svg PUBLIC "-//W3C//DTD SVG 1.1//EN"
        "http://www.w3.org/Graphics/SVG/1.1/DTD/svg11.dtd">
<svg t="1633543893675" class="icon" viewBox="0 0 1024 1024" version="1.1" xmlns="http://www.w3.org/2000/svg" p-id="8742"
     xmlns:xlink="http://www.w3.org/1999/xlink" width="200" height="200">
    <defs>
        <style type="text/css"></style>
    </defs>
    <path d="M512 1024C229.239467 1024 0 794.760533 0 512S229.239467 0 512 0 1024 229.239467 1024 512 794.760533 1024 512 1024z m11.377778-316.438756l159.288889 83.740445a22.755556 22.755556 0 0 0 32.995555-23.984356l-30.401422-177.3568 128.864711-125.610666a22.755556 22.755556 0 0 0-12.629333-38.820978l-178.062222-25.873067-79.644445-161.3824a22.755556 22.755556 0 0 0-40.823467 0l-79.644444 161.3824-178.084978 25.873067a22.755556 22.755556 0 0 0-12.606578 38.820978l128.864712 125.610666-30.424178 177.3568A22.755556 22.755556 0 0 0 364.088889 791.301689l159.288889-83.740445z"
          p-id="8743" fill="#2c2c2c"></path>
</svg>