<?xml version="1.0" standalone="no"?><!DOCTYPE svg PUBLIC "-//W3C//DTD SVG 1.1//EN" "http://www.w3.org/Graphics/SVG/1.1/DTD/svg11.dtd"><svg t="1631975870907" class="icon" viewBox="0 0 1024 1024" version="1.1" xmlns="http://www.w3.org/2000/svg" p-id="8147" xmlns:xlink="http://www.w3.org/1999/xlink" width="200" height="200"><defs><style type="text/css"></style></defs><path d="M328.192 253.952c-47.616 0-86.016-38.912-86.016-86.016V108.032c0-47.616 38.912-86.016 86.016-86.016 47.616 0 86.016 38.912 86.016 86.016v59.392c0 23.04-8.704 44.544-25.088 60.928-16.384 16.384-37.888 25.6-60.928 25.6z m0-169.984c-13.312 0-24.064 10.752-24.064 24.064v59.392c0 13.312 10.752 24.064 24.064 24.064s24.064-10.752 24.064-24.064V108.032c-0.512-13.312-11.264-24.064-24.064-24.064zM677.888 253.952c-47.616 0-86.016-38.912-86.016-86.016V108.032c0-47.616 38.912-86.016 86.016-86.016 47.616 0 86.016 38.912 86.016 86.016v59.392c0 23.04-8.704 44.544-25.088 60.928-15.872 16.384-37.888 25.6-60.928 25.6z m0-169.984c-13.312 0-24.064 10.752-24.064 24.064v59.392c0 13.312 10.752 24.064 24.064 24.064s24.064-10.752 24.064-24.064V108.032c0-13.312-10.752-24.064-24.064-24.064z" p-id="8148"></path><path d="M101.376 382.464H921.6" p-id="8149"></path><path d="M91.136 351.232H931.84v62.464H91.136V351.232z m413.184 531.456L417.792 870.4v-11.776l122.368-323.072H358.912c0-25.088-0.512-49.664-0.512-74.752l14.848-12.288h259.072l12.288 59.904v16.384L522.24 869.376l-17.92 13.312z" p-id="8150"></path><path d="M808.96 102.912h-75.776v62.464H808.96c40.448 0 73.216 32.768 73.216 73.216v615.936c0 40.448-32.768 73.216-73.216 73.216H193.536c-40.448 0-73.216-32.768-73.216-73.216V238.592c0-40.448 32.768-73.216 73.216-73.216h98.816V102.912H193.536c-74.752 0-135.68 60.928-135.68 135.68v615.424c0 74.752 60.928 135.68 135.68 135.68l615.424 0.512c74.752 0 135.68-60.928 135.68-135.68V238.592c0-74.752-60.928-135.68-135.68-135.68z" p-id="8151"></path><path d="M361.472 102.912h261.632v62.464H361.472z" p-id="8152"></path></svg>