<?xml version="1.0" standalone="no"?><!DOCTYPE svg PUBLIC "-//W3C//DTD SVG 1.1//EN"
        "http://www.w3.org/Graphics/SVG/1.1/DTD/svg11.dtd">
<svg t="1631895737051" class="icon" viewBox="0 0 1024 1024" version="1.1" xmlns="http://www.w3.org/2000/svg"
     p-id="28410" xmlns:xlink="http://www.w3.org/1999/xlink" width="200" height="200">
    <defs>
        <style type="text/css"></style>
    </defs>
    <path d="M175.104 273.92c16.896 0 30.72-13.824 30.72-30.72v-42.496a46.98 46.98 0 0 1 47.104-47.104h537.6a46.98 46.98 0 0 1 47.104 47.104v486.912c0 16.896 13.824 30.72 30.72 30.72s30.72-13.824 30.72-30.72v-486.4c0-59.904-48.64-108.544-108.544-108.544h-537.6c-59.904 0-108.544 48.64-108.544 108.544v42.496c0 16.896 13.824 30.208 30.72 30.208z m-30.72 172.032v134.656c0 16.896 13.824 30.72 30.72 30.72s30.72-13.824 30.72-30.72V445.952c0-16.896-13.824-30.72-30.72-30.72s-30.72 13.824-30.72 30.72zM678.4 872.448H252.928a46.98 46.98 0 0 1-47.104-47.104v-42.496c0-16.896-13.824-30.72-30.72-30.72s-30.72 13.824-30.72 30.72v42.496c0 59.904 48.64 108.544 108.544 108.544H678.4c16.896 0 30.72-13.824 30.72-30.72s-13.824-30.72-30.72-30.72z"
          fill="#515151" p-id="28411"></path>
    <path d="M923.648 880.128L476.16 433.152c-11.776-11.776-31.232-11.776-43.52 0-11.776 11.776-11.776 31.232 0 43.52l446.976 446.976c6.144 6.144 13.824 8.704 21.504 8.704s15.872-3.072 21.504-8.704c12.8-11.776 12.8-31.744 1.024-43.52zM120.832 372.224h108.032c16.896 0 30.72-13.824 30.72-30.72s-13.824-30.72-30.72-30.72H120.832c-16.896 0-30.72 13.824-30.72 30.72s13.824 30.72 30.72 30.72z m138.24 312.32c0-16.896-13.824-30.72-30.72-30.72h-107.52c-16.896 0-30.72 13.824-30.72 30.72s13.824 30.72 30.72 30.72h108.032c16.896 0 30.208-13.824 30.208-30.72z"
          fill="#515151" p-id="28412"></path>
</svg>