<?xml version="1.0" standalone="no"?><!DOCTYPE svg PUBLIC "-//W3C//DTD SVG 1.1//EN"
        "http://www.w3.org/Graphics/SVG/1.1/DTD/svg11.dtd">
<svg t="1633628373929" class="icon" viewBox="0 0 1024 1024" version="1.1" xmlns="http://www.w3.org/2000/svg" p-id="2575"
     xmlns:xlink="http://www.w3.org/1999/xlink" width="200" height="200">
    <defs>
        <style type="text/css"></style>
    </defs>
    <path d="M242.1 264.5c0 5.6 2.8 10.3 7.5 13.1 4.7 2.8 10.3 2.8 15.9 0 4.7-2.8 7.5-7.5 7.5-13.1 0-8.4-7.5-15.9-15.9-15.9-7.5 0-15 7.5-15 15.9zM853.6 242c-12.2 0-21.5 10.3-21.5 22.4 0 12.2 9.3 22.4 21.5 22.4s21.5-10.3 21.5-22.4c1-13-9.3-22.4-21.5-22.4z m58 204.8s-11.2 37.4-32.7 43c0 0 27.1 11.2 32.7 39.3 0 0 3.7-40.2 36.5-41.1 0-1-34.6-18.8-36.5-41.2zM267.4 157s3.7-30.9 27.1-31.8c0 0.9-27.1-14-27.1-31.8 0 0-8.4 29-26.2 32.7 0.9 0.9 22.5 9.4 26.2 30.9z m678.8 228.1s-3.7 14-12.2 15.9c0 0 10.3 3.7 12.2 15 0 0 1.9-15 13.1-15 0.9-0.9-12.2-7.5-13.1-15.9z m-470.3 93.5c10.3-4.7 20.6-13.1 29.9-21.5 0.9-0.9 1.9-2.8 1.9-3.7-0.9-1.9-1.9-2.8-2.8-3.7-0.9 0-2.8 0.9-3.7 0.9-9.3 8.4-18.7 15-29 20.6-1.9 0.9-2.8 3.7-1.9 5.6 1.9 1.8 3.7 2.7 5.6 1.8z m-125.3-45.8c1.9-0.9 3.7-2.8 3.7-4.7-0.9-3.7-0.9-6.5-0.9-10.3l3.7-13.1c1.9-3.7 3.7-6.5 6.5-9.4 1.9-1.9 1.9-3.7 0-6.5-1.9-1.9-3.7-1.9-6.5 0-10.3 11.2-15 25.2-12.2 40.2 1 2.8 3.8 4.7 5.7 3.8z m172 8.4c7.5-7.5 15-16.8 21.5-26.2 0.9-0.9 0.9-1.9 0.9-2.8-0.9-1.9-0.9-1.9-1.9-2.8-0.9-0.9-1.9-0.9-2.8-0.9-0.9 0.9-1.9 0.9-2.8 1.9-7.5 9.4-14 17.8-21.5 26.2-1.9 1.9-1.9 3.7 0.9 6.5 2 0 3.9 0 5.7-1.9z m-145.8-56.1c0.9 0 0.9 0 1.9-0.9 10.3-4.7 23.4-6.5 34.6-3.7 1.9 0.9 4.7-0.9 4.7-2.8 0.9-1.9-0.9-4.7-2.8-4.7-12.2-3.7-27.1-1.9-40.2 3.7-1.9 0.9-2.8 2.8-1.9 4.7-0.1 1.8 1.8 3.7 3.7 3.7z m67.3 42.1c0 1.9 0.9 2.8 1.9 3.7 1.9 0.9 2.8 0.9 3.7-0.9 0.9-0.9 1.9-1.9 1.9-3.7-1.9-18.7-9.3-32.7-19.6-43-1.9-1.9-4.7-0.9-6.5 0.9-1.9 1.9-1.9 3.7 0.9 6.5 10.2 7.5 15.8 19.6 17.7 36.5z m-53.3 48.6c-0.9 1.9-0.9 4.7 1.9 5.6 9.4 4.7 17.8 7.5 27.1 9.3h0.9c1.9 0 3.7-1.9 3.7-3.7 0.9-1.9-1.9-3.7-3.7-4.7-8.4-0.9-15.9-3.7-24.3-7.5-1.8-1.8-3.7-0.9-5.6 1z m61.7-28.1c-0.9-0.9-1.9-1.9-2.8-1.9-1.9-0.9-4.7 1.9-4.7 3.7-0.9 11.2-3.7 21.5-6.5 31.8-1.9 0-3.7 0.9-4.7 0.9-1.9 0-3.7 1.9-3.7 3.7 0 1.9 1.9 3.7 3.7 3.7h1.9c-1.9 3.7-3.7 7.5-5.6 12.2-0.9 1.9-0.9 4.7 1.9 5.6 1.9 0.9 4.7 0.9 5.6-1.9 2.8-4.7 4.7-10.3 7.5-15.9 3.7-0.9 7.5-0.9 10.3-1.9 1.9-0.9 3.7-2.8 2.8-4.7-0.9-1.9-2.8-3.7-4.7-2.8-1.9 0.9-3.7 0.9-4.7 0.9 2.8-9.4 4.7-19.6 6.5-29.9-1.8-1.6-2.8-2.5-2.8-3.5z m-97.2-5.6c-1.9 0.9-1.9 3.7-0.9 6.5 4.7 6.5 10.3 13.1 17.8 18.7l7.5 6.5c1.9 1.9 4.7 0.9 6.5-0.9 1.9-1.9 0.9-4.7-0.9-6.5-2.8-1.9-4.7-3.7-7.5-6.5-6.5-5.6-12.2-11.2-15.9-17.8-1.9-0.9-4.7-0.9-6.6 0z m230-100.9c1.9 0.9 4.7 0.9 5.6-1.9 9.4-18.7 15-31.8 15-31.8 0.9-1.9 0.9-4.7-1.9-5.6-0.9-0.9-1.9-0.9-3.7 0-0.9 0.9-1.9 0.9-1.9 1.9 0 0-4.7 13.1-15 31.8-0.9 1.8 0 4.6 1.9 5.6z m-30.9 56.1c1.9 0 2.8-0.9 3.7-1.9 7.5-11.2 15-23.4 21.5-34.6 0.9-0.9 0.9-1.9 0.9-3.7-0.9-0.9-0.9-1.9-1.9-2.8-0.9-0.9-1.9-0.9-3.7-0.9-0.9 0.9-1.9 0.9-2.8 1.9-6.5 12.2-13.1 23.4-20.6 34.6-0.9 0.9-0.9 2.8-0.9 3.7 1 3.7 2.9 3.7 3.8 3.7z m72-87.9l-4.6 53.3 29.9-39.3z m-97.2-57.1l70.1 31.8 114.1-90.7-87 94.5 87 28.9L762 141.1zM363 585.1c9.4-6.5 17.8-12.2 26.2-18.7l0.9-0.9c0.9-1.1 1.1-2.6 0.5-3.9-0.5-1.2-0.8-1.9-2.3-2.6-1.7-0.8-2.6-0.9-3.5 0.4-0.2 0.4-0.5 0.7-0.9 1-8.2 6.4-16.5 12.8-25.6 18.2-0.7 0.4-1.3 1-1.6 1.7-1 2.3 0.7 4.9 3.2 5.2 1.1 0.1 2.2 0.1 3.1-0.4z m42.2-34.9c7.7-8.4 14.7-15.7 21.5-24 0.2-0.4 0.5-0.7 0.6-1.1 0.6-1.3 0.5-2.8-0.4-3.9-0.8-1-1.2-1.7-2.8-2.1-1.8-0.5-2.7-0.3-3.3 1.2-0.1 0.4-0.4 0.8-0.6 1.1-6.6 8-13.3 16-21 23.4-0.6 0.5-1 1.2-1.2 2.1-0.5 2.5 1.8 4.6 4.3 4.3 1-0.1 2.1-0.4 2.9-1z m-57.1 42.4l-1.8-3.5c-1.1-2.1-3.7-2.9-5.8-1.8-10.3 5.7-18.7 9.5-23.3 11.3-2.1 0.9-3.1 3.2-2.3 5.3 0.8 2.2 3.2 3.3 5.4 2.4 5.3-1.9 15.1-6.4 27.8-13.7zM87.9 329s-8.4 29-26.2 32.7c0 0 21.5 8.4 26.2 29.9 0 0 3.7-30.9 27.1-31.8 0.9 1-26.2-13-27.1-30.8z m679.7 290.8s-3.7 14-12.2 15.9c0 0 10.3 3.7 12.2 15 0 0 1.9-15 13.1-15 0 0-13.1-7.5-13.1-15.9z"
          p-id="2576"></path>
    <path d="M141.6 941c-10.8 0-19.6-9.2-19.6-20.5V740.3c0-5.7 0.9-11.3 2.7-16.6l65.4-194.8c2.3-7.3 8.9-12.2 16.4-12.2h359.2c7.4 0 14 4.9 16.4 12.1l65.3 194.9c1.8 5.4 2.7 11 2.7 16.6v180.2c0 11.3-8.8 20.5-19.6 20.5H141.6z m484.8-24.4V740.3c0-3-0.5-5.9-1.4-8.7L561.1 541H211.2l-63.9 190.5c-0.9 2.8-1.4 5.7-1.4 8.7v176.4h480.5z"
          p-id="2577"></path>
    <path d="M386.1 820.2c-19.5 0-38.4-7.5-53.2-21-12.9-11.9-22.1-27.9-26.1-45.6H141.4v-24.3h174.8l11.7-0.7 0.4 8c1.7 33.2 27.1 59.3 57.8 59.3 30.7 0 56.1-26 57.8-59.3l0.4-8 11.7 0.7h174.8v24.3H465.4c-4 17.7-13.2 33.8-26.1 45.6-14.8 13.5-33.7 21-53.2 21z"
          p-id="2578"></path>
</svg>