<?xml version="1.0" standalone="no"?><!DOCTYPE svg PUBLIC "-//W3C//DTD SVG 1.1//EN"
        "http://www.w3.org/Graphics/SVG/1.1/DTD/svg11.dtd">
<svg t="1633684184753" class="icon" viewBox="0 0 1024 1024" version="1.1" xmlns="http://www.w3.org/2000/svg"
     p-id="10655" xmlns:xlink="http://www.w3.org/1999/xlink" width="200" height="200">
    <defs>
        <style type="text/css"></style>
    </defs>
    <path d="M625.777778 938.666667h-227.555556c-46.933333 0-85.333333-38.4-85.333333-85.333334v-85.333333c0-15.644444 12.8-28.444444 28.444444-28.444444h341.333334c15.644444 0 28.444444 12.8 28.444444 28.444444v85.333333c0 46.933333-38.4 85.333333-85.333333 85.333334z m-256-142.222223v56.888889c0 15.644444 12.8 28.444444 28.444444 28.444445h227.555556c15.644444 0 28.444444-12.8 28.444444-28.444445v-56.888889H369.777778z"
          p-id="10656"></path>
    <path d="M625.777778 796.444444h-227.555556C225.564444 796.444444 85.333333 656.213333 85.333333 483.555556v-85.333334c0-46.933333 38.115556-85.333333 85.333334-85.333333h682.666666c46.933333 0 85.333333 38.115556 85.333334 85.333333v85.333334c0 172.657778-140.231111 312.888889-312.888889 312.888888zM170.666667 369.777778c-15.644444 0-28.444444 12.8-28.444445 28.444444v85.333334c0 141.084444 114.915556 256 256 256h227.555556c141.084444 0 256-114.915556 256-256v-85.333334c0-15.644444-12.8-28.444444-28.444445-28.444444H170.666667z"
          p-id="10657"></path>
    <path d="M881.777778 341.333333h-56.888889c0-94.151111-76.515556-170.666667-170.666667-170.666666s-170.666667 76.515556-170.666666 170.666666h-56.888889c0-125.44 102.115556-227.555556 227.555555-227.555555s227.555556 102.115556 227.555556 227.555555z"
          p-id="10658"></path>
    <path d="M227.555556 355.555556H170.666667C170.666667 206.506667 291.84 85.333333 440.888889 85.333333c52.906667 0 104.391111 15.36 148.48 44.373334l-31.288889 47.502222A213.418667 213.418667 0 0 0 227.555556 355.555556z"
          p-id="10659"></path>
</svg>