<?xml version="1.0" standalone="no"?><!DOCTYPE svg PUBLIC "-//W3C//DTD SVG 1.1//EN"
        "http://www.w3.org/Graphics/SVG/1.1/DTD/svg11.dtd">
<svg t="1631975702405" class="icon" viewBox="0 0 1344 1024" version="1.1" xmlns="http://www.w3.org/2000/svg" p-id="4462"
     xmlns:xlink="http://www.w3.org/1999/xlink" width="262.5" height="200">
    <defs>
        <style type="text/css"></style>
    </defs>
    <path d="M1152 0a192 192 0 0 1 192 192v640a192 192 0 0 1-192 192H421.952a192 192 0 0 1-163.584-91.52l-196.608-320a192 192 0 0 1 0-200.96l196.608-320A192 192 0 0 1 421.952 0H1152z m0 64H421.952a128 128 0 0 0-109.056 60.992l-196.608 320a128 128 0 0 0 0 134.016l196.608 320A128 128 0 0 0 421.952 960H1152a128 128 0 0 0 128-128V192a128 128 0 0 0-128-128zM489.344 233.344a32 32 0 0 1 45.312 0L768 466.752l233.344-233.408a32 32 0 0 1 45.312 45.312L813.248 512l233.408 233.344a32 32 0 0 1 3.648 40.832l-3.648 4.48a32 32 0 0 1-45.312 0L768 557.248l-233.344 233.408a32 32 0 0 1-45.312-45.312L722.752 512 489.344 278.656a32 32 0 0 1-3.648-40.832l3.648-4.48z"
          p-id="4463"></path>
</svg>