<?xml version="1.0" standalone="no"?><!DOCTYPE svg PUBLIC "-//W3C//DTD SVG 1.1//EN"
        "http://www.w3.org/Graphics/SVG/1.1/DTD/svg11.dtd">
<svg t="1633684605333" class="icon" viewBox="0 0 1024 1024" version="1.1" xmlns="http://www.w3.org/2000/svg"
     p-id="14552" xmlns:xlink="http://www.w3.org/1999/xlink" width="200" height="200">
    <defs>
        <style type="text/css"></style>
    </defs>
    <path d="M394.62882599 280.71642601c12.29809401 0 21.86396-9.628288 21.86396-22.00926901 0-79.781044 64.230883-143.058207 142.12699801-143.05820699s142.125975 63.276139 142.12597399 143.05820699c0 12.38098201 9.56689001 22.00926999 21.864984 22.00926901 12.300141 0 21.866007-9.628288 21.86600701-22.00926901 0-103.16563801-83.363639-187.075723-185.856965-187.07572299-102.494349 0-185.857988 83.910085-185.857988 187.07572299 0.001023 12.38098201 9.56689001 22.00926999 21.86702999 22.00926901z m561.67128301 169.19344699c0-15.130605-6.832615-30.261211-19.131733-39.890522-12.29809401-8.253988-28.69862201-9.628288-40.99774-1.375324-6.832615 4.125971-13.66625399 6.877641-21.866007 8.252965-76.528977-83.90906201-204.989721-133.428895-345.748558-133.428895-58.765405 0-116.16162599 9.628288-169.458483 28.885887-27.331485-30.261211-65.59597401-46.768163-105.228623-46.768163-15.032368 0-27.331485 6.877641-36.897352 19.258622-9.56689001 13.754259-12.300141 30.261211-6.83363899 45.391817 8.200776 22.010293 9.56586599 45.39284 5.46547899 67.403132-20.49784601 19.256576-38.264489 39.89052199-54.66297099 61.899792-4.100388 0-8.200776-1.375324-10.93300301-1.375323h-5.46752499c-43.729967 0-79.262228 37.139875-79.262228 82.533738v125.17490699c0 45.39284 35.532261 82.53373799 79.262228 82.53373901h6.83363899c4.100388 0 8.199753 0 12.298094-1.375324 27.332509 38.515199 62.86476999 72.904427 105.22759901 100.413967v4.12699399c0 55.022151 40.998763 99.039667 90.19625499 99.03966701 27.331485 0 53.296857-13.75528199 71.062476-37.13885101 32.79901001 6.87661801 65.596997 9.628288 99.76212101 9.628288 46.465265 0 90.196255-5.502317 133.92724499-17.882276 16.39848201 27.511587 45.097104 44.017516 75.162864 44.017516 50.56360599 0 90.195232-44.017516 90.195232-99.03966699v-27.511587c75.16184-60.523445 118.892831-143.057183 118.89283-226.966245 0-24.759917-4.098341-50.895157-10.93300299-74.279751 9.568936-23.384593 15.03543799-46.76918599 19.13480299-71.529103z m-62.86374699 78.40572099c8.199753 22.00926999 10.933003 45.393863 10.933004 68.77743301 0 72.90545001-39.63060201 145.80885401-110.69410201 199.456704-5.46650199 4.125971-8.199753 11.004635-8.199752 17.882276v37.13987499c0 30.26325799-21.864984 55.022151-47.831379 55.02215101-19.132756 0-36.897352-13.756305-43.73099-34.389228-2.733251-8.252964-10.933003-13.756305-20.49887-13.756305-2.73427401 0-4.100388 0-6.83261499 1.375323-45.099151 13.75528199-91.563392 20.632923-139.39374701 20.63292299-35.53123799 0-71.062476-4.12699401-105.228623-12.37893499-9.56586599-2.75167001-19.131733 2.750647-24.59925799 11.002588-8.198729 17.882276-24.59925799 27.511587-40.996716 27.511588-25.966395 0-47.83137801-24.759917-47.83137901-55.022151v-16.506953c0-6.877641-4.100388-15.130605-9.56688899-17.882275-45.098127-28.886911-83.363639-64.65146199-109.327988-107.292632-5.46547799-8.252964-16.399505-11.004635-25.96639501-8.252965-4.098341 1.375324-8.19770601 2.75167001-12.298094 2.75167099h-6.833638c-20.49886999 0-36.897352-17.883299-36.897352-38.51622199V540.696576c0-22.00926999 16.399505-38.51622201 36.897352-38.51622201h6.833638c4.100388 0 8.199753 1.375324 12.298094 2.75064701 9.56689001 4.12699401 20.499893 0 25.96639501-8.252965 16.39848201-26.136264 36.898375-49.520857 60.129472-70.153779 4.100388-2.75167001 5.467525-6.87661801 6.83363899-11.00463501 6.832615-33.012881 5.46650199-66.02678601-5.466502-97.66536699-1.367137-2.750647 0-5.502317 1.367137-6.876618 0-1.375324 1.36611401-1.375324 1.36611401-1.37532299 31.431873 0 60.130496 15.131629 80.62936599 42.643216 5.46650199 8.252964 16.399505 11.004635 24.599257 6.87661699 51.930743-20.632923 109.327988-31.638581 168.091346-31.63858099 133.92622199 0 254.187213 48.14450999 321.150324 126.55330099 4.098341 5.50129399 10.933003 8.251941 17.764596 6.876618 15.032368-1.375324 30.065759-5.50129399 43.73099-12.37893499-2.732228 22.00824601-9.56586599 44.017516-17.76459499 63.27613799-1.36509001 5.50129399-1.36509001 11.002588 1.36816 16.50490601zM257.969353 459.538161c-16.399505 0-30.064736 26.13524-30.064736 57.77382101 0 31.63653401 13.665231 57.77279801 30.064736 57.77279899s30.064736-26.137287 30.064736-57.77279899c-1.36611401-31.638581-15.033391-57.773821-30.064736-57.77382101z"
          fill="#2c2c2c" p-id="14553"></path>
</svg>