<?xml version="1.0" standalone="no"?><!DOCTYPE svg PUBLIC "-//W3C//DTD SVG 1.1//EN"
        "http://www.w3.org/Graphics/SVG/1.1/DTD/svg11.dtd">
<svg t="1633686842156" class="icon" viewBox="0 0 1024 1024" version="1.1" xmlns="http://www.w3.org/2000/svg" p-id="3053"
     xmlns:xlink="http://www.w3.org/1999/xlink" width="200" height="200">
    <defs>
        <style type="text/css"></style>
    </defs>
    <path d="M842.667 128c51.504 0 93.535 40.56 95.895 91.48l0.105 4.52v576c0 51.504-40.56 93.536-91.481 95.896l-4.52 0.104H181.334c-51.504 0-93.535-40.56-95.895-91.48l-0.105-4.52V224c0-51.504 40.56-93.536 91.481-95.896l4.52-0.104h661.333z m0 64H181.333c-16.633 0-30.303 12.69-31.853 28.918l-0.147 3.082v576c0 16.634 12.691 30.303 28.919 31.854l3.081 0.146h661.334c16.633 0 30.303-12.69 31.853-28.918l0.147-3.082V224c0-16.634-12.691-30.303-28.919-31.854l-3.081-0.146z m-416 149.333v64h-85.334v74.646l85.334 0.021v64l-85.334-0.021v74.688h85.334v64H277.333V341.333h149.334z m309.333 0v64c-29.267 0-38.228 1.703-44.754 8.131-11.059 10.894-18.622 39.111-19.21 91.82L672 512c0 57.043 7.726 87.188 19.246 98.536 6.142 6.05 14.441 7.914 39.796 8.112l4.958 0.019v64c-89.58 0-126.691-35.009-127.966-163.684L608 512c0-132.04 35.54-169.364 123.251-170.633l4.749-0.034z m-138.667 0v64l-42.666-0.021v277.355h-64V405.312l-42.667 0.021v-64h149.333z"
          p-id="3054" fill="#2c2c2c"></path>
</svg>