<?xml version="1.0" standalone="no"?><!DOCTYPE svg PUBLIC "-//W3C//DTD SVG 1.1//EN"
        "http://www.w3.org/Graphics/SVG/1.1/DTD/svg11.dtd">
<svg t="1633687230498" class="icon" viewBox="0 0 1024 1024" version="1.1" xmlns="http://www.w3.org/2000/svg"
     p-id="24525" xmlns:xlink="http://www.w3.org/1999/xlink" width="200" height="200">
    <defs>
        <style type="text/css"></style>
    </defs>
    <path d="M680.96 697.782857a276.48 276.48 0 1 1 275.748571-275.748571 276.48 276.48 0 0 1-275.748571 275.748571z m0-493.714286a219.428571 219.428571 0 1 0 219.428571 219.428572 219.428571 219.428571 0 0 0-219.428571-219.428572z"
          p-id="24526"></path>
    <path d="M266.971429 885.028571a146.285714 146.285714 0 0 1-111.908572-52.662857 146.285714 146.285714 0 0 1 16.822857-197.485714l234.057143-247.954286a29.257143 29.257143 0 1 1 42.422857 40.228572l-234.057143 247.954285a92.16 92.16 0 0 0-13.165714 120.685715 92.891429 92.891429 0 0 0 121.417143 15.36l292.571429-172.617143a29.257143 29.257143 0 0 1 43.154285 10.971428 28.525714 28.525714 0 0 1-10.24 39.497143l-292.571428 172.617143a172.617143 172.617143 0 0 1-88.502857 23.405714z"
          p-id="24527"></path>
    <path d="M277.942857 789.211429a57.782857 57.782857 0 0 1-45.348571-20.48 64.365714 64.365714 0 0 1 7.314285-84.114286l73.142858-73.142857a24.137143 24.137143 0 0 1 21.942857-8.777143 28.525714 28.525714 0 0 1 21.942857 10.24l56.32 68.022857a29.988571 29.988571 0 0 1 5.851428 23.405714 31.451429 31.451429 0 0 1-13.165714 20.48l-87.771428 54.857143a73.142857 73.142857 0 0 1-40.228572 9.508572z m0-56.32z m52.662857-59.245715l-48.274285 51.2a10.971429 10.971429 0 0 0-3.657143 5.851429h5.851428l59.977143-38.034286z"
          p-id="24528"></path>
</svg>