<?xml version="1.0" standalone="no"?><!DOCTYPE svg PUBLIC "-//W3C//DTD SVG 1.1//EN"
        "http://www.w3.org/Graphics/SVG/1.1/DTD/svg11.dtd">
<svg t="1633687032581" class="icon" viewBox="0 0 1024 1024" version="1.1" xmlns="http://www.w3.org/2000/svg" p-id="6995"
     xmlns:xlink="http://www.w3.org/1999/xlink" width="200" height="200">
    <defs>
        <style type="text/css"></style>
    </defs>
    <path d="M797.25 348.39c0-5.96-2.07-11.4-5.42-15.81-0.52-1.23-0.74-2.54-1.5-3.69L684.91 170.23c-10.71-13.79-26.08-21.7-42.17-21.7h-318.9c-16.56 0-32.23 8.31-42.98 22.78L190.1 331.73c-1.69 2.98-2.4 6.18-2.6 9.38-0.67 2.33-1.15 4.74-1.15 7.28 0 14.49 11.75 26.25 26.25 26.25H771c14.5 0 26.25-11.76 26.25-26.25zM316.68 196.51c2.26-2.7 4.83-4.24 7.17-4.24h318.9c2.48 0 5.25 1.74 6.66 3.47l83.92 126.4H245.74l70.94-125.63z"
          fill="#2c2c2c" p-id="6996"></path>
    <path d="M473.03 703.95c14.5 0 26.25-11.76 26.25-26.25s-11.75-26.25-26.25-26.25H88.61c-13.24 0-24.02-10.78-24.02-24.03v-5.67c7.6 2.54 15.58 4.24 24.02 4.24h548.28c14.5 0 26.25-11.76 26.25-26.25s-11.75-26.25-26.25-26.25H88.61c-13.24 0-24.02-10.78-24.02-24.03V398.65c0-13.24 10.77-24.03 24.02-24.03h18.63c9.1 0 17.1-4.63 21.81-11.66 1.37-1.41 2.68-2.92 3.74-4.68l143.07-236.95c3.23-2.97 7.19-4.6 11.34-4.6h405.01c4.01 0 7.86 1.52 11.04 4.32l145.52 228.68c7.79 12.22 24 15.84 36.24 8.05s15.84-24.01 8.06-36.24L745.98 90.43l-2.95-3.79c-13.25-14.22-31.77-22.37-50.81-22.37H287.21c-19.62 0-38.52 8.58-51.86 23.51L93.32 322.15h-4.71c-42.19 0-76.51 34.33-76.51 76.52V627.44c0 42.19 34.32 76.52 76.51 76.52h18.61v28.38c0 52.85 46.08 95.85 102.71 95.85s102.71-42.99 102.71-95.85v-28.38h160.39z m-212.88 28.39c0 23.91-22.52 43.35-50.21 43.35s-50.21-19.45-50.21-43.35v-28.38h100.43v28.38z"
          fill="#2c2c2c" p-id="6997"></path>
    <path d="M93.89 470.47c0 47.15 38.36 85.49 85.49 85.49s85.49-38.35 85.49-85.49-38.36-85.49-85.49-85.49-85.49 38.35-85.49 85.49z m118.49 0c0 18.2-14.8 33-33 33s-33-14.8-33-33 14.8-33 33-33 33 14.8 33 33zM1009.5 499.42c-1.56-11.28-9.2-20.63-19.97-24.35-10.79-3.79-22.63-1.18-30.89 6.82l-43.49 42.04c-7.65-1.45-14.7-5.13-20.38-10.73-6.35-6.25-10.31-14.25-11.47-22.93l39.67-37.75a30.195 30.195 0 0 0 8.4-29.46c-2.75-10.56-11.02-18.83-21.57-21.57-26.02-6.73-91.29-18.23-135.38 21.14-30.8 27.51-42.94 72.28-36.18 133.09-4.52 4.77-10.82 11.36-18.05 18.93-19.56 20.51-45.76 47.96-63.21 66.78-20.58 18.83-38.67 35.35-49.04 44.78-60.95-6.82-105.82 5.31-133.36 36.16-39.39 44.11-27.9 109.37-21.11 135.41a30.114 30.114 0 0 0 21.63 21.53c10.59 2.75 21.88-0.5 29.41-8.42l37.71-39.66c8.69 1.14 16.69 5.13 22.95 11.47 5.59 5.67 9.26 12.7 10.71 20.39l-42.06 43.52c-7.91 8.22-10.52 20.03-6.8 30.81 3.72 10.75 13.03 18.42 24.33 19.99 9.14 1.28 22.29 2.6 37.39 2.6 35.68 0 82.22-7.4 112.25-40.41 25.3-27.82 33.36-67.12 23.99-117.02 0.82-0.79 1.68-1.61 2.57-2.46 10.33-9.83 23.59-22.47 32.87-31.88 9.16-8.69 44.25-44.43 79.56-80.48 5.63-5.74 10.6-10.82 14.47-14.76 49.97 9.42 89.36 1.35 117.23-23.99 47-42.79 42.1-118.9 37.82-149.59z m-73.14 110.74c-16.54 15.05-44.23 18.1-82.16 9.09-10.17-2.39-20.69 0.46-28.08 7.71-1.56 1.52-10.99 11.14-23.63 24.04-23.81 24.31-61.94 63.21-75.07 76.11l-0.11-0.1c-7.79 8.29-24.73 24.4-35.94 35.07-6.03 5.74-10.73 10.22-12.38 11.91-7.3 7.43-10.19 17.94-7.77 28.06 9.02 38 5.97 65.67-9.07 82.21-12.3 13.52-33.04 20.16-55.37 22.39l13.72-14.2c5.46-5.59 8.5-12.97 8.57-20.64 0.34-24.85-9.07-48.28-26.53-65.98-17.45-17.7-40.75-27.44-65.61-27.44h-3.95c-8.14 0-16.05 3.37-21.86 9.36l-11.93 12.54c0.72-16.54 4.9-32.14 14.55-42.96 20.76-23.27 64.39-22.56 97.39-17.81 8.76 1.25 17.54-1.42 24.17-7.28 6.39-5.71 27.91-25.35 54.08-49.3l0.39 0.36c1.3-1.43 2.82-3.06 4.27-4.63 0.99-0.9 1.93-1.77 2.93-2.68l-0.23-0.25c17.24-18.56 42.5-45.02 61.42-64.84 13.41-14.05 23.73-24.88 26.18-27.62 5.82-6.56 8.47-15.33 7.24-24.18-4.71-32.93-5.43-76.56 17.81-97.32 10.8-9.66 26.41-13.84 42.96-14.54l-12.47 11.86c-6 5.66-9.44 13.65-9.44 21.91v3.95c0 24.86 9.75 48.17 27.45 65.62 17.7 17.46 40.34 26.79 66.07 26.54 7.72-0.14 15.02-3.18 20.45-8.49l14.29-13.81c-2.17 22.29-8.82 43.03-22.34 55.34z"
          fill="#2c2c2c" p-id="6998"></path>
</svg>