<?xml version="1.0" standalone="no"?><!DOCTYPE svg PUBLIC "-//W3C//DTD SVG 1.1//EN"
        "http://www.w3.org/Graphics/SVG/1.1/DTD/svg11.dtd">
<svg t="1633687088653" class="icon" viewBox="0 0 1024 1024" version="1.1" xmlns="http://www.w3.org/2000/svg"
     p-id="12700" xmlns:xlink="http://www.w3.org/1999/xlink" width="200" height="200">
    <defs>
        <style type="text/css"></style>
    </defs>
    <path d="M874.666667 170.666667H149.333333a106.666667 106.666667 0 0 0-106.666666 106.666666v384a106.666667 106.666667 0 0 0 85.333333 104.533334 95.573333 95.573333 0 0 0 190.08 2.133333h386.133333a95.573333 95.573333 0 0 0 191.786667-2.133333 106.666667 106.666667 0 0 0 85.333333-104.533334V277.333333a106.666667 106.666667 0 0 0-106.666666-106.666666zM224 810.666667a53.333333 53.333333 0 1 1 53.333333-53.333334 53.333333 53.333333 0 0 1-53.333333 53.333334z m90.026667-85.333334a95.573333 95.573333 0 0 0-179.626667-1.92A64 64 0 0 1 85.333333 661.333333v-42.666666h469.333334v106.666666H314.026667zM597.333333 725.333333V320a21.333333 21.333333 0 0 1 42.666667 0v405.333333h-42.666667z m202.666667 85.333334a53.333333 53.333333 0 1 1 53.333333-53.333334 53.333333 53.333333 0 0 1-53.333333 53.333334z m89.6-87.253334a95.573333 95.573333 0 0 0-179.626667 1.92H682.666667V320a64 64 0 0 0-128 0v256H85.333333V277.333333a64 64 0 0 1 64-64h725.333334a64 64 0 0 1 60.16 42.666667H832a106.666667 106.666667 0 0 0-106.666667 106.666667v149.333333a106.666667 106.666667 0 0 0 106.666667 106.666667h106.666667v42.666666a64 64 0 0 1-49.066667 62.08zM938.666667 298.666667v277.333333h-106.666667a64 64 0 0 1-64-64v-149.333333a64 64 0 0 1 64-64h106.666667z"
          fill="#2c2c2c" p-id="12701"></path>
    <path d="M810.666667 362.666667a21.333333 21.333333 0 0 0 21.333333 21.333333h42.666667a21.333333 21.333333 0 0 0 0-42.666667h-42.666667a21.333333 21.333333 0 0 0-21.333333 21.333334zM448 256h-42.666667a64 64 0 0 0-64 64v42.666667a64 64 0 0 0 64 64h42.666667a64 64 0 0 0 64-64v-42.666667a64 64 0 0 0-64-64z m21.333333 106.666667a21.333333 21.333333 0 0 1-21.333333 21.333333h-42.666667a21.333333 21.333333 0 0 1-21.333333-21.333333v-42.666667a21.333333 21.333333 0 0 1 21.333333-21.333333h42.666667a21.333333 21.333333 0 0 1 21.333333 21.333333v42.666667zM234.666667 256H192a64 64 0 0 0-64 64v42.666667a64 64 0 0 0 64 64h42.666667a64 64 0 0 0 64-64v-42.666667a64 64 0 0 0-64-64z m21.333333 106.666667a21.333333 21.333333 0 0 1-21.333333 21.333333H192a21.333333 21.333333 0 0 1-21.333333-21.333333v-42.666667a21.333333 21.333333 0 0 1 21.333333-21.333333h42.666667a21.333333 21.333333 0 0 1 21.333333 21.333333v42.666667z"
          fill="#2c2c2c" p-id="12702"></path>
</svg>