<?xml version="1.0" standalone="no"?><!DOCTYPE svg PUBLIC "-//W3C//DTD SVG 1.1//EN"
        "http://www.w3.org/Graphics/SVG/1.1/DTD/svg11.dtd">
<svg t="1633687347673" class="icon" viewBox="0 0 1024 1024" version="1.1" xmlns="http://www.w3.org/2000/svg"
     p-id="35008" xmlns:xlink="http://www.w3.org/1999/xlink" width="200" height="200">
    <defs>
        <style type="text/css"></style>
    </defs>
    <path d="M233.452516 280.32087c38.441444 0 73.258344 15.585946 98.458233 40.78174 25.190678 25.191702 40.777647 60.007579 40.777647 98.446976 0 29.188728-8.983587 56.276612-24.332126 78.657297-4.006236-14.352864-9.833953-28.371108-16.857913-41.94012 4.289691-11.422121 6.632034-23.798985 6.632034-36.717177 0-28.901179-11.723996-55.067066-30.669448-74.005356-18.930104-18.946476-45.100084-30.656146-74.00945-30.656146-28.891969-0.004093-55.067066 11.713763-74.010473 30.656146-18.937267 18.934197-30.652053 45.1052-30.652052 74.005356 0 28.905272 11.709669 55.07116 30.652052 74.013543 17.482128 17.483151 41.135804 28.821361 67.407091 30.457625 2.422161 9.153456 2.8059 18.053132-0.086981 25.981692-1.008978 2.750642-2.363833 5.557565-3.972466 8.379838-34.186545-2.593053-64.939905-17.530223-87.779031-40.386745-25.194772-25.190678-40.785834-59.994276-40.785833-98.445953 0-38.44349 15.586969-73.247088 40.785833-98.446976 25.191702-25.199888 60.003486-40.78174 98.442883-40.78174z"
          fill="#2c2c2c" p-id="35009"></path>
    <path d="M488.217388 81.522549c-0.096191 0.037862-0.008186 0.017396 0.041956 0.029675 0.036839-0.054235 0.070608-0.079818-0.041956-0.029675z m389.886046 0c-0.116657-0.054235-0.086981-0.020466-0.046049 0.029675 0.054235-0.017396 0.134053 0.01228 0.046049-0.029675z m-357.030819 305.010129c13.736835 57.281497 46.868354 96.236639 87.116952 116.975944 23.26482 11.983915 49.069481 17.982524 74.972379 17.982524 25.892665 0 51.704489-5.997586 74.965216-17.982524 40.252692-20.743398 73.389327-59.694448 87.121045-116.975944-16.892705 16.912148-37.193013 30.356318-59.515369 40.318183-31.610889 14.103178-67.169685 21.160907-102.569869 21.160907-35.399161 0-70.957957-7.053636-102.572938-21.160907-22.319287-9.962889-42.615501-23.401943-59.51537-40.31409v-0.004093h-0.002046z m-229.180222 69.953072c56.447504 93.188216 17.694975 137.338674-30.413623 192.086469-32.383483 36.854299-70.171036 79.862749-70.147499 156.810105 0.00921 39.99482 20.331007 74.981589 52.328704 101.381812 36.242363 29.871272 87.042251 48.826958 141.188344 52.321542 7.323788 0.465603 14.039733 0.704033 20.164208 0.708126 67.756038 0.007163 129.262757-22.395011 174.859144-62.593468 45.25051-39.900676 74.956006-97.687684 79.541432-168.799137 0.453324-6.958468 0.679474-13.505568 0.679474-19.593204l0.028653-136.705249c-26.07379-2.792597-51.771004-10.335372-75.623201-22.622185-61.903761-31.895367-110.757325-95.396506-120.291449-190.30285L436.827054 86.820194c-0.754175-7.432258 0-14.539105 2.201127-21.247887 2.21443-6.756877 5.872743-12.980613 10.942191-18.57911 4.981445-5.502306 10.805069-9.737762 17.382868-12.660319 6.707759-2.975768 13.724555-4.481049 20.977735-4.481049h63.643378c7.888652-10.501147 20.435384-17.2877 34.563122-17.287701 23.85936 0 43.212088 19.346588 43.212087 43.207995s-19.351705 43.207995-43.212087 43.207995c-14.12876-0.004093-26.679586-6.790646-34.563122-17.282584l-63.643378-0.004094c-0.033769 0-0.054235 0-0.071631-0.004093l0.009209 0.066515 21.893593 217.844058c11.509102 45.726346 43.880305 77.673902 84.466594 95.791502 26.979414 12.034057 57.672399 18.062342 88.533206 18.062341 30.844434 0 61.554815-6.024192 88.521949-18.062341 40.597546-18.12067 72.971819-50.069249 84.472734-95.786385l21.906896-217.848152v-0.070608c-0.021489 0.004093-0.046049 0.013303-0.075725 0.013303l-63.641332-0.004093c-7.883535 10.496031-20.435384 17.2877-34.562097 17.2877-23.860383-0.004093-43.203901-19.346588-43.203902-43.207994s19.342495-43.207995 43.203902-43.207995c14.127737 0 26.678563 6.790646 34.562097 17.287701h63.641332c7.254203 0 14.278163 1.509374 20.976712 4.481049 6.577799 2.922557 12.405516 7.158013 17.382868 12.660319 5.065356 5.594404 8.728784 11.826326 10.942191 18.57911 2.20522 6.703666 2.955302 13.818699 2.205221 21.247887l-27.37134 272.353424c-9.545381 94.907367-58.393828 158.415669-120.302706 190.306943-22.148395 11.411888-45.897238 18.729536-70.053356 21.946804l-0.038885 137.378583c0 8.270344-0.221034 15.876564-0.674358 22.838102-5.527889 85.723212-41.731367 155.753032-96.963185 204.442867-54.878778 48.392053-128.445137 75.364304-209.078435 75.346908-8.282624-0.004093-16.095551-0.23536-23.407059-0.708127-64.809945-4.172011-126.267546-27.387712-170.756717-64.071119-43.516009-35.8883-71.142151-84.536179-71.161594-141.272255-0.024559-96.452556 44.628341-147.266771 82.900939-190.834968 32.240221-36.686477 58.569837-66.680545 26.17919-127.576352a69.263365 69.263365 0 0 1-15.31477 1.708918c-38.172315 0-69.124196-30.951881-69.124195-69.132382 0.004093-38.172315 30.951881-69.124196 69.124195-69.124196 38.179478 0 69.136475 30.952904 69.136475 69.124196 0 13.585386-3.927441 26.253891-10.696598 36.942303v-0.007163z"
          fill="#2c2c2c" p-id="35010"></path>
</svg>