<?xml version="1.0" standalone="no"?><!DOCTYPE svg PUBLIC "-//W3C//DTD SVG 1.1//EN"
        "http://www.w3.org/Graphics/SVG/1.1/DTD/svg11.dtd">
<svg t="1633686568478" class="icon" viewBox="0 0 1024 1024" version="1.1" xmlns="http://www.w3.org/2000/svg"
     p-id="34246" xmlns:xlink="http://www.w3.org/1999/xlink" width="200" height="200">
    <defs>
        <style type="text/css"></style>
    </defs>
    <path d="M928.256 139.776H96.256c-17.92 0-32.256 14.336-32.256 32.256v496.128c0 17.92 14.336 32.256 32.256 32.256H476.16v112.128H304.128c-8.704 0-15.872 7.168-15.872 15.872v48.128c0 4.608 3.584 8.192 8.192 8.192h432.128c4.608 0 8.192-3.584 8.192-8.192v-48.128c0-8.704-7.168-15.872-15.872-15.872H547.84v-112.128h379.904c17.92 0 32.256-14.336 32.256-32.256V172.032c0-17.92-14.336-32.256-31.744-32.256z m-40.448 488.448H136.192V211.968h752.128v416.256z"
          p-id="34247"></path>
</svg>