<?xml version="1.0" standalone="no"?><!DOCTYPE svg PUBLIC "-//W3C//DTD SVG 1.1//EN"
        "http://www.w3.org/Graphics/SVG/1.1/DTD/svg11.dtd">
<svg t="1633685654296" class="icon" viewBox="0 0 1058 1024" version="1.1" xmlns="http://www.w3.org/2000/svg"
     p-id="25322" width="206.640625" height="200" xmlns:xlink="http://www.w3.org/1999/xlink">
    <defs>
        <style type="text/css"></style>
    </defs>
    <path d="M590.126351 5.419499c6.959777-5.448022 16.943064-5.590641 23.931365-0.057048 56.990306 37.879443 113.780947 76.044123 170.799777 113.837995 0.256713-15.916212-0.627521-31.860947 0.31376-47.748635 0.656045-9.412813 10.297047-15.973259 19.31053-15.573928 26.555543-0.342284 53.111086 0.142618 79.695153-0.199666 8.072201 0 17.713203-0.342284 23.332368 6.58897 6.104067 6.189638 4.221504 15.573928 4.649359 23.417938-0.656045 39.391198 0.969805 78.839443-0.85571 118.202117 40.161337 26.184735 79.866295 53.082563 119.799443 79.609583 15.830641 9.726574 26.013593 27.211588 27.126016 45.723454v3.536935c-0.770139 14.97493-6.845682 29.807242-18.169582 39.904624-17.542061 17.028635-46.77883 19.681337-67.344401 6.674541-20.508524-12.892702-40.275432-26.926351-60.641337-39.990195-0.171142 143.873426 0.370808 287.718329-0.256713 431.591755 13.149415 8.557103 25.699833 19.282006 31.404568 34.37103 11.181281 24.844123 4.535265 55.792312-14.889359 74.646463-7.958106 8.043677-18.312201 13.03532-28.78039 16.971587-92.045905 34.941504-183.920669 70.28234-275.995098 105.138273-58.502061 22.10585-123.536045 26.897827-184.434094 12.293705-24.530362-5.619164-48.033872-14.860836-71.138051-24.67298-37.308969-15.630975-74.846128-30.777047-112.012479-46.77883 0.798663 11.837326-5.790306 25.75688-19.453147 25.157883-48.347632 0.256713-96.723788 0.31376-145.071421-0.028524-10.411142 0.399331-16.971588-8.728245-19.167911-17.827298-24.102507-0.171142-48.17649-0.028524-72.278997-0.057047v-36.595878c24.216602-0.057047 48.433203-0.256713 72.649805 0.114095 0.656045-60.869526-0.057047-121.739053 0.342284-182.60858-24.330696-0.142618-48.661393-0.028524-72.992089-0.057047v-36.53883c24.04546-0.085571 48.090919-0.057047 72.107855 0 2.310418-8.956435 8.671198-18.511866 19.08234-17.884345 48.604345-0.256713 97.237214-0.31376 145.813036 0 10.496713-0.798663 17.000111 8.699721 19.139387 17.798774 11.951421 0.085571 23.874318 0.028524 35.825739 0.028524-0.057047-118.373259-0.028524-236.775042 0-355.148301-19.62429 13.03532-39.077437 26.384401-58.901393 39.105961-17.969916 12.122563-43.127799 12.236657-61.211811 0.342284-15.973259-10.24-26.498496-28.980056-25.614262-48.090919-0.256713-19.510195 11.495042-37.651253 27.725014-47.805683 138.767688-92.416713 277.364234-185.033092 416.160446-277.392757M194.046574 313.332591c-6.104067 3.765125-11.63766 9.869192-11.295376 17.513537-0.941281 9.812145 7.159443 18.711532 16.657827 20.080669 6.332256 1.312089 12.265181-2.167799 17.399443-5.390975 124.477326-83.0039 248.926128-166.036323 373.431978-248.954652 6.931253-5.562117 16.943064-5.50507 23.845794 0.114095 125.504178 83.488802 250.72312 167.376936 376.284345 250.780167 9.840669 7.701393 25.557214 2.880891 29.778719-8.756769 4.107409-8.699721-0.199666-19.3961-8.243343-24.131031-136.542841-91.30429-273.370919-182.180724-409.91376-273.485014-135.772702 91.0761-272.001783 181.439109-407.945627 272.229973M820.626184 92.758997c0.484903 16.771922 0.228189 33.572368 0.171142 50.372814 18.369248 12.208134 36.339164 25.100836 55.278886 36.453259-0.399331-29.122674 0.656045-58.273872-0.54195-87.368023-18.312201 0.54195-36.624401-0.427855-54.908078 0.54195m-491.833761 221.743064c-0.598997 126.901838 0.028524 253.832201-0.31376 380.734039 54.993649 3.993315 109.359777 17.770251 159.019499 41.958329 14.176267 7.245014 29.835766 11.951421 45.894596 11.922897 46.636212 0.142618 93.272423-0.057047 139.908635 0.057047 16.743398-0.057047 33.629415 5.989972 45.666406 17.798775 14.461504 13.320557 21.392758 33.51532 19.31053 52.968468 36.22507-15.944735 72.849471-30.976713 109.188635-46.607688 8.728245-3.87922 17.770251-7.302061 27.411253-8.015154 2.624178-18.22663 0.484903-36.795543 1.169471-55.164791 0-130.267632-0.028524-260.563788 0-390.83142 1.055376-4.221504-3.422841-6.132591-6.018496-8.243343-89.36468-59.528914-178.729359-119.086351-268.036991-178.757883-90.904958 60.983621-181.981058 121.682006-273.199778 182.180724m-219.575264 398.475766c0.456379 72.849471 0.31376 145.698942 0.085571 218.548413 36.595877 0.199666 73.220279 0.142618 109.816156 0.028523-0.370808-72.992089-0.114095-145.984178-0.142619-219.004791-36.567354 0.285237-73.191755-0.513426-109.759108 0.427855m145.984178 18.312201c0.741616 57.475209-0.228189 114.950418 0.484903 172.425627 50.971811 20.594095 101.487242 42.386184 152.459052 63.008802 56.70507 22.505181 120.854819 25.642786 179.499499 8.813816 27.553872-8.414485 54.137939-19.62429 81.121337-29.664624 74.503844-28.46663 149.093259-56.70507 223.511532-85.314318 17.827298-5.989972 25.500167-29.607577 15.317215-45.181504-7.273538-12.72156-24.530362-18.283677-37.765349-11.808802-50.315766 21.221616-100.488914 42.756992-150.804679 63.978607-15.374262 6.531922-32.11766 9.498384-48.775488 9.441337-71.451811-0.085571-142.903621 0.114095-214.355431-0.085571 0.028524-12.122563 0.028524-24.245125 0-36.367688 72.421616-0.228189 144.843231 0.028524 217.29337-0.114094 18.312201 1.39766 34.456602-18.85415 27.496825-36.22507-4.107409-11.067187-15.488357-19.282006-27.439778-18.511866-46.664735-0.085571-93.329471 0.114095-139.994206-0.085571-20.964903-0.028524-41.587521-5.647688-60.299053-14.917883-37.651253-18.340724-78.240446-30.662953-119.742395-36.110975-32.431421-4.791978-65.347744-3.651031-98.007354-3.280223z"
          p-id="25323" fill="#2c2c2c"></path>
    <path d="M477.771588 312.990306c34.28546-7.75844 71.879666 13.149415 83.232089 46.408023 12.17961 31.062284-1.197994 68.998774-29.464958 86.369693-25.557214 16.857493-61.554095 14.547075-84.972034-5.077214-18.768579-15.260167-29.122674-40.218384-26.241782-64.292368 2.738273-30.634429 27.354206-57.503733 57.446685-63.408134m5.020167 36.22507c-14.718217 3.936267-25.614262 17.827298-26.584067 32.916323-1.654373 20.451476 16.714875 39.533816 37.223398 38.678106 20.879331-0.114095 38.792201-20.708189 35.36936-41.473426-2.48156-21.278663-25.44312-36.22507-46.008691-30.121003zM443.11532 627.064513c97.180167-97.608022 194.702618-194.902284 292.139499-292.253594 8.357437 8.699721 16.800446 17.313872 25.671309 25.500167-96.780836 97.722117-194.759666 194.274763-291.369359 292.139499-9.327242-7.929582-17.342396-17.228301-26.441449-25.386072zM694.408914 532.48c16.886017-4.107409 35.255265-1.996657 50.629526 6.132591 24.131031 12.17961 40.389526 38.934819 38.991866 66.060835 0.798663 37.708301-33.344178 71.879666-71.081002 70.995432-25.870975 1.369136-51.285571-13.406128-64.121226-35.654596-10.439666-17.370919-12.635989-39.163008-6.731588-58.445014 7.302061-23.988412 27.839109-43.413036 52.312424-49.089248m7.558774 35.654596c-17.969916 4.478217-30.292145 24.216602-26.070641 42.300613 3.394318 19.139387 24.04546 33.001894 43.013705 28.523677 18.996769-3.622507 32.859276-24.102507 28.352535-43.070752-3.679554-19.823955-25.842451-33.971699-45.295599-27.753538zM146.012702 859.019053c12.122563-0.142618 24.216602-0.142618 36.310641 0-0.199666 11.979944-0.114095 23.959889-0.085571 35.968356-12.065515-0.028524-24.131031 0.028524-36.196546-0.057047 0.114095-11.979944 0.142618-23.931365-0.028524-35.911309z"
          p-id="25324" fill="#2c2c2c"></path>
</svg>