<?xml version="1.0" standalone="no"?><!DOCTYPE svg PUBLIC "-//W3C//DTD SVG 1.1//EN"
        "http://www.w3.org/Graphics/SVG/1.1/DTD/svg11.dtd">
<svg t="1633686824789" class="icon" viewBox="0 0 1024 1024" version="1.1" xmlns="http://www.w3.org/2000/svg" p-id="2079"
     xmlns:xlink="http://www.w3.org/1999/xlink" width="200" height="200">
    <defs>
        <style type="text/css"></style>
    </defs>
    <path d="M812.672 1000.45312c0 12.83072-10.51648 23.22944-23.48544 23.22944H74.112c-12.96896 0-23.48032-10.39872-23.48032-23.22944s10.51136-23.23456 23.48032-23.23456h715.07456c12.96896 0 23.48544 10.40896 23.48544 23.23456z"
          fill="#2c2c2c" p-id="2080"></path>
    <path d="M764.72832 987.06944h-45.99808V147.93728c0-54.4256-44.05248-98.70336-98.20672-98.70336h-377.7536c-54.14912 0-98.20672 44.27776-98.20672 98.70336v839.13216h-45.99808V147.93728C98.56512 68.1472 163.25632 3.23072 242.76992 3.23072h377.7536c79.5136 0 144.2048 64.91648 144.2048 144.70656v839.13216z"
          fill="#2c2c2c" p-id="2081"></path>
    <path d="M914.58048 975.97952c-20.17792 0.00512-40.69888-6.41024-56.7296-18.70848-11.50464-8.832-17.8944-16.99328-22.79424-29.12768-5.85728-14.4896-7.95648-30.464-8.17664-32.24064a23.808 23.808 0 0 1-0.17408-2.83136V404.07552h-84.97664a22.99904 22.99904 0 0 1 0-45.99808h107.97568a22.99904 22.99904 0 0 1 22.99904 22.99904v510.39744c0.6144 4.03968 2.28864 12.72832 5.00224 19.44576 1.46432 3.62496 2.3552 5.41696 8.15104 9.86624 12.81536 9.8304 32.78336 12.17024 46.44864 5.43232 12.65152-6.23616 19.06688-19.7632 19.06688-40.21248V266.74688l-114.49856-114.97984a22.99904 22.99904 0 1 1 32.59392-32.4608l121.21088 121.70752a22.99904 22.99904 0 0 1 6.70208 16.22528v628.75648c0 51.70176-28.02176 73.23136-44.71808 81.46944-11.6224 5.72928-24.77568 8.51456-38.08256 8.51456z"
          fill="#2c2c2c" p-id="2082"></path>
    <path d="M863.68256 320.2816a23.0144 23.0144 0 0 1-21.632-15.18592 22.99392 22.99392 0 0 1 13.80864-29.45024l110.68928-40.02816a22.99904 22.99904 0 1 1 15.6416 43.25888l-110.68928 40.02816a22.98368 22.98368 0 0 1-7.81824 1.37728z m-130.52928 407.13728a23.22944 23.22944 0 0 1-23.23456 23.22944H148.66944a23.22944 23.22944 0 1 1 0-46.45888h561.24928a23.22944 23.22944 0 0 1 23.23456 23.22944z m-175.5136-391.43424H305.65376c-40.52992 0-73.50272-32.9728-73.50272-73.4976v-43.11552c0-40.52992 32.9728-73.50272 73.50272-73.50272h251.98592c40.52992 0 73.4976 32.9728 73.4976 73.50272v43.11552c0.01024 40.52992-32.96768 73.4976-73.4976 73.4976zM305.65376 191.86688a27.53536 27.53536 0 0 0-27.50464 27.50464v43.11552a27.53024 27.53024 0 0 0 27.50464 27.49952h251.98592a27.53024 27.53024 0 0 0 27.49952-27.49952v-43.11552a27.53024 27.53024 0 0 0-27.49952-27.50464H305.65376z"
          fill="#2c2c2c" p-id="2083"></path>
    <path d="M323.80416 706.92864a17.31584 17.31584 0 1 0 0 34.64192h109.54752v98.28864a17.32096 17.32096 0 1 0 34.64192 0v-98.28864h98.28864a17.32096 17.32096 0 1 0 0-34.64192H467.9936v-45.9008h98.28864a17.31584 17.31584 0 1 0 0-34.64192H494.40256l43.29984-71.87456a16.89088 16.89088 0 0 0-6.016-23.1168l-0.48128-0.27136a17.32608 17.32608 0 0 0-23.38304 6.0672l-53.69344 89.19552H442.88L391.35232 537.1904a16.88064 16.88064 0 0 0-23.04-6.26176c-0.11264 0.06656-0.22528 0.12288-0.33792 0.19456a17.3312 17.3312 0 0 0-6.49728 23.38304l40.2688 71.87456H323.80416a17.32096 17.32096 0 1 0 0 34.64192h109.54752v46.33088l-109.54752-0.42496z"
          fill="#2c2c2c" p-id="2084"></path>
</svg>