<?xml version="1.0" standalone="no"?><!DOCTYPE svg PUBLIC "-//W3C//DTD SVG 1.1//EN"
        "http://www.w3.org/Graphics/SVG/1.1/DTD/svg11.dtd">
<svg t="1633687012229" class="icon" viewBox="0 0 1024 1024" version="1.1" xmlns="http://www.w3.org/2000/svg" p-id="5955"
     xmlns:xlink="http://www.w3.org/1999/xlink" width="200" height="200">
    <defs>
        <style type="text/css"></style>
    </defs>
    <path d="M942.08 583.497143c0-2.742857-0.365714-5.302857-1.097143-7.68-0.182857-0.731429-0.548571-1.462857-0.731428-2.377143-0.731429-2.194286-1.462857-4.205714-2.56-6.217143-0.182857-0.365714-0.365714-0.914286-0.548572-1.28l-146.285714-248.137143a36.388571 36.388571 0 0 0-31.451429-17.92H246.491429c-13.714286 0-26.148571 7.68-32.548572 19.748572l-128 248.137143c-0.182857 0.365714-0.182857 0.731429-0.365714 0.914285-1.097143 2.194286-1.828571 4.571429-2.56 6.948572-0.182857 0.365714-0.365714 0.731429-0.365714 1.097143-0.548571 2.56-0.914286 5.12-0.914286 7.68v262.582857c0 20.114286 16.457143 36.571429 36.571428 36.571428h4.205715v67.84h73.142857v-67.84h632.137143v67.84h73.142857v-67.84h4.205714c20.114286 0 36.571429-16.457143 36.571429-36.571428V584.411429v-0.182858c0.365714-0.182857 0.365714-0.548571 0.365714-0.731428zM268.8 372.845714h469.577143l103.131428 174.994286H178.468571l90.331429-174.994286z m-72.96 437.577143H155.062857V620.982857h713.874286v189.44H195.84zM475.428571 72.411429h73.142858V201.142857h-73.142858zM316.16 154.331429h73.142857v128.731428h-73.142857zM634.697143 154.331429h73.142857v128.731428h-73.142857z"
          fill="#2c2c2c" p-id="5956"></path>
    <path d="M234.057143 744.96m-54.857143 0a54.857143 54.857143 0 1 0 109.714286 0 54.857143 54.857143 0 1 0-109.714286 0Z"
          fill="#2c2c2c" p-id="5957"></path>
    <path d="M789.942857 744.96m-54.857143 0a54.857143 54.857143 0 1 0 109.714286 0 54.857143 54.857143 0 1 0-109.714286 0Z"
          fill="#2c2c2c" p-id="5958"></path>
</svg>