<?xml version="1.0" standalone="no"?><!DOCTYPE svg PUBLIC "-//W3C//DTD SVG 1.1//EN"
        "http://www.w3.org/Graphics/SVG/1.1/DTD/svg11.dtd">
<svg t="1633687212045" class="icon" viewBox="0 0 1751 1024" version="1.1" xmlns="http://www.w3.org/2000/svg"
     p-id="23281" xmlns:xlink="http://www.w3.org/1999/xlink" width="341.9921875" height="200">
    <defs>
        <style type="text/css"></style>
    </defs>
    <path d="M1230.32521408 928.84114583h-233.04477944c-11.27636032 0-22.55272065-7.5175738-30.07029445-18.79393412s-7.5175738-22.55272065 0-33.8290802c7.5175738-15.03514684 15.03514684-33.82908096 15.0351476-52.62301509 0-60.14058813-48.8642278-109.00481592-105.2460294-109.00481591-60.14058813 0-105.24602941 48.8642278-105.2460294 109.00481591 0 18.79393412 3.75878651 37.58786748 15.03514683 52.62301509 7.5175738 11.27636032 7.5175738 22.55272065 0 33.8290802-7.5175738 11.27636032-18.79393412 18.79393412-30.07029368 18.79393412h-233.04477945c-60.14058813 0-105.24602941-48.8642278-105.2460294-105.24602941v-75.17573496c-11.27636032 3.75878651-22.55272065 3.75878651-33.82908096 3.75878653-97.72845561 0-176.66297785-78.93452225-176.66297785-176.66297786s78.93452225-176.66297785 176.66297784-176.66297785c11.27636032 0 22.55272065 0 33.82908097 3.75878652V256.0183154c0-60.14058813 48.8642278-105.24602941 105.2460294-105.24602941h233.04477945c11.27636032 0 22.55272065 7.5175738 30.07029368 18.79393414s7.5175738 22.55272065 0 33.82908019c-7.5175738 15.03514684-15.03514684 33.82908096-15.03514683 52.62301508 0 60.14058813 48.8642278 109.00481592 105.24602939 109.00481593 60.14058813 0 105.24602941-48.8642278 105.24602941-109.00481593 0-18.79393412-3.75878651-37.58786748-15.0351476-52.62301508-7.5175738-11.27636032-7.5175738-22.55272065 0-33.82908019s18.79393412-18.79393412 30.07029445-18.79393414h233.04477944c60.14058813 0 105.24602941 48.8642278 105.24602941 105.24602941v146.5926834c11.27636032-3.75878651 22.55272065-3.75878651 33.82908095-3.75878652 97.72845561 0 176.66297785 78.93452225 176.66297787 176.66297785s-78.93452225 176.66297785-176.66297787 176.66297786c-11.27636032 0-22.55272065 0-33.82908095-3.75878653v75.17573496c0 56.38180161-48.8642278 105.24602941-105.24602941 105.24602941z m-184.18055165-71.41694844h180.42176437c18.79393412 0 33.82908096-15.03514684 33.82908096-33.82908097v-127.79875003c0-11.27636032 7.5175738-22.55272065 18.79393412-30.07029369 11.27636032-7.5175738 26.31150716-7.5175738 33.82908097 0 15.03514684 7.5175738 33.82908096 15.03514684 52.62301431 15.03514684 60.14058813 0 105.24602941-48.8642278 105.2460294-109.00481593 0-60.14058813-48.8642278-109.00481592-105.2460294-109.00481669-18.79393412 0-37.58786748 3.75878651-52.62301431 15.03514762-11.27636032 7.5175738-22.55272065 7.5175738-33.82908097 0-11.27636032-7.5175738-18.79393412-18.79393412-18.79393412-30.07029446v-199.21569848c0-18.79393412-15.03514684-33.82908096-33.82908096-33.82908097h-180.42176437c3.75878651 11.27636032 3.75878651 22.55272065 3.75878651 37.58786825 0 97.72845561-78.93452225 176.66297785-176.66297784 176.66297785s-176.66297785-78.93452225-176.66297785-176.66297785c0-11.27636032 0-22.55272065 3.75878729-37.58786825h-180.42176514c-18.79393412 0-33.82908096 15.03514684-33.82908018 33.82908097v199.21569848c0 11.27636032-7.5175738 22.55272065-18.79393413 30.07029446s-26.31150716 7.5175738-33.82908097 0c-15.03514684-7.5175738-33.82908096-15.03514684-52.62301431-15.03514762-60.14058813 0-105.24602941 48.8642278-105.24602941 109.00481669 0 60.14058813 48.8642278 109.00481592 105.24602941 109.00481593 18.79393412 0 37.58786748-3.75878651 52.62301431-15.03514684 11.27636032-7.5175738 22.55272065-7.5175738 33.82908097 0 11.27636032 7.5175738 18.79393412 18.79393412 18.79393413 30.07029368v127.79875004c0 18.79393412 15.03514684 33.82908096 33.82908018 33.82908097h180.42176514c-3.75878651-11.27636032-3.75878651-22.55272065-3.75878729-37.58786747 0-97.72845561 78.93452225-180.42176437 176.66297785-180.42176515s176.66297785 78.93452225 176.66297784 180.42176515c0 15.03514684 0 26.31150716-3.75878651 37.58786747z"
          fill="#2c2c2c" p-id="23282"></path>
    <path d="M873.24047111 425.16371944c-97.72845561 0-176.66297785-78.93452225-176.66297786-176.66297784 0-30.07029444 7.5175738-60.14058813 22.55272064-86.45209529l3.7587873-7.5175738c11.27636032-15.03514684 30.07029444-22.55272065 48.86422779-11.27636032 15.03514684 11.27636032 22.55272065 30.07029444 11.27636032 48.8642278l-3.75878728 3.75878729c-7.5175738 15.03514684-11.27636032 33.82908096-11.27635955 52.62301432 0 60.14058813 48.8642278 109.00481592 105.24602864 109.00481591 60.14058813 0 105.24602941-48.8642278 105.24602939-109.00481591 0-18.79393412-3.75878651-37.58786748-15.03514683-52.62301432-11.27636032-15.03514684-3.75878651-37.58786748 11.27636032-48.86422781 15.03514684-11.27636032 37.58786748-3.75878651 48.8642278 11.27636033 15.03514684 26.31150716 22.55272065 56.38180161 22.55272063 90.2108818 3.75878651 97.72845561-75.17573496 176.66297785-172.90419131 176.66297784z"
          fill="#2c2c2c" p-id="23283"></path>
</svg>