<?xml version="1.0" standalone="no"?><!DOCTYPE svg PUBLIC "-//W3C//DTD SVG 1.1//EN"
        "http://www.w3.org/Graphics/SVG/1.1/DTD/svg11.dtd">
<svg t="1633687195611" class="icon" viewBox="0 0 1024 1024" version="1.1" xmlns="http://www.w3.org/2000/svg"
     p-id="21175" xmlns:xlink="http://www.w3.org/1999/xlink" width="200" height="200">
    <defs>
        <style type="text/css"></style>
    </defs>
    <path d="M511.998998 1023.997997A511.998998 511.998998 0 0 1 149.971185 149.971185a511.998998 511.998998 0 0 1 724.100148 724.077888A508.659874 508.659874 0 0 1 511.998998 1023.997997z m0-959.998122A447.999123 447.999123 0 1 0 959.998122 511.998998 448.533383 448.533383 0 0 0 511.998998 63.999875z"
          fill="#2c2c2c" p-id="21176"></path>
    <path d="M422.243348 656.249151v-130.359397h-143.181633v58.76858h80.673233v73.727856a66.470826 66.470826 0 0 1-33.658369 49.151904 243.62248 243.62248 0 0 1 35.795409 49.686164v-2.226083l0.534259 2.226083c12.822236-11.130413 33.124109-22.973172 147.455712-72.659336a283.001881 283.001881 0 0 1-8.548157-59.837101z m239.348401 30.45281c0 8.013897-2.671299 10.150937-12.287976 10.150936-8.548157 0-40.069487 0.53426-69.008561-0.534259a234.918497 234.918497 0 0 1 19.767614 60.37136 238.547012 238.547012 0 0 0 94.563989-10.150937c21.993696-9.70572 27.870554-26.178731 27.870554-58.679537V440.408182H661.591749z m-75.330635-221.717827h-60.37136v178.977041h60.37136z m75.864895-87.618611h-63.042659v-53.960243h63.042659z m-121.27698 0H479.943409v-53.960243h60.994663z m-119.139941 0h-60.37136v-53.960243h60.37136zM300.521151 277.458935v146.387192h57.076758L327.234142 463.381354a1186.813678 1186.813678 0 0 1 105.160142 60.37136l33.658369-47.549124a947.153625 947.153625 0 0 0-102.043626-52.357463H725.702928v-146.387192z"
          fill="#2c2c2c" p-id="21177"></path>
</svg>