<?xml version="1.0" standalone="no"?><!DOCTYPE svg PUBLIC "-//W3C//DTD SVG 1.1//EN"
        "http://www.w3.org/Graphics/SVG/1.1/DTD/svg11.dtd">
<svg t="1633687455611" class="icon" viewBox="0 0 1024 1024" version="1.1" xmlns="http://www.w3.org/2000/svg"
     p-id="43811" xmlns:xlink="http://www.w3.org/1999/xlink" width="200" height="200">
    <defs>
        <style type="text/css"></style>
    </defs>
    <path d="M176 584.48a50.4 50.4 0 1 0 50.4-50.24A50.08 50.08 0 0 0 176 584.48z m0 0" p-id="43812"></path>
    <path d="M160 368c-109.6 85.76-128 132.96-128 179.52v199.04h75.68v104.8h246.88v-104.8h78.56a270.88 270.88 0 0 1-20-60.8H289.6v109.28h-120.64v-109.28H96V544c0-32 48-87.84 75.84-87.84h246.56L457.92 400h-240z"
          p-id="43813"></path>
    <path d="M707.36 879.04a280 280 0 1 1 280-280 280.32 280.32 0 0 1-280 280z m0-496a216 216 0 1 0 216 216 216.16 216.16 0 0 0-216-216z"
          p-id="43814"></path>
    <path d="M206.24 426.24l-60.48-20.48L239.36 128h576.32L896 336l-80-32-44.48-112H285.44l-79.2 234.24zM603.04 644.48h79.04v-18.56H596.8v-48H672l-54.4-104.64h65.6l29.92 62.72 30.08-62.72h65.6l-54.72 104.64h76v48h-84.8v18.56h80v48h-80V736h-63.2v-43.04h-79.04z"
          p-id="43815"></path>
</svg>