<?xml version="1.0" standalone="no"?><!DOCTYPE svg PUBLIC "-//W3C//DTD SVG 1.1//EN"
        "http://www.w3.org/Graphics/SVG/1.1/DTD/svg11.dtd">
<svg t="1633687273814" class="icon" viewBox="0 0 1024 1024" version="1.1" xmlns="http://www.w3.org/2000/svg"
     p-id="27767" xmlns:xlink="http://www.w3.org/1999/xlink" width="200" height="200">
    <defs>
        <style type="text/css"></style>
    </defs>
    <path d="M631.297548 557.614897l-236.398058-0.13303c-16.325827 0-29.534663 13.279445-29.534663 29.600155 0 16.388249 13.208836 29.596062 29.534663 29.596062l236.398058 0.068562c16.391319 0 29.600155-13.278421 29.600155-29.597085C660.895657 570.823734 647.620305 557.614897 631.297548 557.614897L631.297548 557.614897zM394.835022 439.349353l236.401128 0.064468c16.320711 0 29.598108-13.210883 29.534663-29.535687 0.063445-16.320711-13.213953-29.597085-29.534663-29.597085L394.835022 380.281049c-16.32378 0-29.53364 13.213953-29.53364 29.53364C365.300358 426.139493 378.573663 439.349353 394.835022 439.349353L394.835022 439.349353zM926.768003 624.049982c0.063445-16.068977-6.478552-30.92943-17.279548-41.730427-6.414083-6.411013-14.227026-11.367909-23.121604-14.353916-11.556197-3.808746-21.272489-9.588379-28.958542-17.273409-28.773324-28.837792-28.773324-75.648934 0-104.480586 7.686053-7.68503 17.402345-13.529131 28.958542-17.275455 24.200168-8.068769 40.46255-30.614252 40.46255-56.146764l0-81.109296c0-23.627117-9.211802-45.922912-25.978674-62.563918-16.766872-16.829294-38.998199-26.041096-62.689784-26.041096l-650.190339-0.188288c-48.845475 0-88.668459 39.820937-88.668459 88.666412l0 81.361029c0 16.004509 6.479575 30.867008 17.275455 41.72531 6.28924 6.290263 14.039761 11.17962 22.741957 14.294564 11.305487 3.746324 20.894889 9.528004 28.386514 17.144472 28.836769 28.836769 28.836769 75.582419 0 104.483656-7.55507 7.622608-17.081027 13.33368-28.386514 17.209964-23.821545 8.064676-39.952944 30.549783-39.952944 56.016805l0 81.493036c0 23.75196 9.274224 45.917796 25.977651 62.562894 16.766872 16.829294 38.999223 26.104541 62.689784 26.03598l650.128941 0.128937c48.841382 0 88.666412-39.758516 88.666412-88.665389L926.768003 624.049982 926.768003 624.049982zM867.69663 705.347566c0 16.324804-13.207813 29.531594-29.53364 29.531594L188.034049 734.87916c-8.129144 0-15.564487-3.367701-20.898982-8.763594-5.265934-5.27105-8.634658-12.762675-8.699126-20.830421l0-81.493036c18.73469-6.411013 36.329417-16.575514 51.190893-31.438013 51.892881-51.887764 51.892881-136.170333-0.064468-188.064236-14.798031-14.923898-32.456203-25.02393-51.127448-31.375591l0-81.297584c0-16.324804 13.147438-29.534663 29.535687-29.534663l650.126894 0.062422c8.131191 0 15.624862 3.305279 20.894889 8.640798 5.335519 5.398964 8.703219 12.763698 8.639774 20.894889l0 81.109296c-18.992563 6.347568-37.031405 16.449647-52.144614 31.628348-51.892881 51.829436-51.892881 136.110981 0 188.066283 15.115256 15.115256 33.090653 25.213241 52.082192 31.56695l0 81.297584L867.69663 705.347566 867.69663 705.347566z"
          p-id="27768"></path>
</svg>