<?xml version="1.0" standalone="no"?><!DOCTYPE svg PUBLIC "-//W3C//DTD SVG 1.1//EN"
        "http://www.w3.org/Graphics/SVG/1.1/DTD/svg11.dtd">
<svg t="1633686592357" class="icon" viewBox="0 0 1024 1024" version="1.1" xmlns="http://www.w3.org/2000/svg"
     p-id="34889" xmlns:xlink="http://www.w3.org/1999/xlink" width="200" height="200">
    <defs>
        <style type="text/css"></style>
    </defs>
    <path d="M923.68 800.92H100.32V223.08h824.6v577.84z m-793.6-29.76h765.08V252.84H130.08v518.32z" fill="#2c2c2c"
          p-id="34890"></path>
    <path d="M441.32 690.56h-122.76c-14.88 0-26.04-12.4-26.04-26.04 0-4.96 1.24-8.68 3.72-12.4-48.36-29.76-79.36-83.08-79.36-140.12 0-7.44 2.48-13.64 7.44-18.6 4.96-4.96 11.16-7.44 18.6-7.44h275.28c7.44 0 13.64 2.48 18.6 7.44 4.96 4.96 7.44 11.16 7.44 18.6 0 57.04-31 110.36-79.36 140.12 2.48 3.72 3.72 7.44 3.72 12.4 0 7.44-2.48 13.64-7.44 18.6-6.2 4.96-13.64 7.44-19.84 7.44z m-198.4-183.52c-1.24 0-2.48 0-2.48 1.24-1.24 1.24-1.24 1.24-1.24 2.48 0 54.56 32.24 105.4 81.84 127.72 3.72 2.48 7.44 6.2 6.2 11.16 0 4.96-3.72 8.68-8.68 9.92-1.24 0-2.48 2.48-2.48 3.72 0 2.48 2.48 3.72 3.72 3.72h122.76c1.24 0 2.48 0 2.48-1.24 1.24-1.24 1.24-1.24 1.24-2.48s-1.24-3.72-2.48-3.72c-4.96-1.24-8.68-4.96-8.68-9.92s2.48-8.68 6.2-11.16c49.6-23.56 81.84-73.16 81.84-127.72 0-1.24 0-2.48-1.24-2.48-1.24-1.24-1.24-1.24-2.48-1.24H242.92z m1.24-45.88c-6.2 0-11.16-4.96-11.16-11.16-1.24-23.56 9.92-45.88 28.52-60.76 16.12-12.4 37.2-17.36 57.04-13.64 12.4-21.08 34.72-33.48 58.28-34.72 23.56-1.24 47.12 11.16 60.76 29.76 19.84-4.96 40.92-2.48 58.28 8.68 19.84 12.4 32.24 34.72 33.48 58.28 0 6.2-4.96 11.16-11.16 11.16-6.2 1.24-11.16-4.96-11.16-11.16-1.24-16.12-8.68-31-23.56-39.68-13.64-8.68-31-9.92-45.88-3.72-4.96 2.48-11.16 0-13.64-4.96-8.68-17.36-27.28-27.28-45.88-26.04-18.6 1.24-35.96 12.4-43.4 29.76-2.48 4.96-8.68 7.44-13.64 6.2-16.12-4.96-32.24-2.48-45.88 7.44s-21.08 26.04-19.84 42.16c0 7.44-4.96 12.4-11.16 12.4zM826.96 485.96H660.8c-6.2 0-11.16-4.96-11.16-11.16s4.96-11.16 11.16-11.16h164.92c6.2 0 11.16 4.96 11.16 11.16 1.24 6.2-3.72 11.16-9.92 11.16zM826.96 577.72H660.8c-6.2 0-11.16-4.96-11.16-11.16s4.96-11.16 11.16-11.16h164.92c6.2 0 11.16 4.96 11.16 11.16 1.24 6.2-3.72 11.16-9.92 11.16zM826.96 688.08H569.04c-6.2 0-11.16-4.96-11.16-11.16s4.96-11.16 11.16-11.16h256.68c6.2 0 11.16 4.96 11.16 11.16 1.24 6.2-3.72 11.16-9.92 11.16z"
          fill="#2c2c2c" p-id="34891"></path>
</svg>