<?xml version="1.0" standalone="no"?><!DOCTYPE svg PUBLIC "-//W3C//DTD SVG 1.1//EN"
        "http://www.w3.org/Graphics/SVG/1.1/DTD/svg11.dtd">
<svg t="1633687119522" class="icon" viewBox="0 0 1024 1024" version="1.1" xmlns="http://www.w3.org/2000/svg"
     p-id="15830" xmlns:xlink="http://www.w3.org/1999/xlink" width="200" height="200">
    <defs>
        <style type="text/css"></style>
    </defs>
    <path d="M931.739736 503.636518a22.101367 22.101367 0 0 0-4.264116-4.702092L608.650247 235.743142c-46.64639-47.701418-106.83419-73.941036-169.597653-73.941036H89.021499c-0.300852 0-0.580215 0.076748-0.877996 0.089028-0.297782-0.01228-0.577145-0.089028-0.877997-0.089028-12.137435 0-21.974477 9.837042-21.974477 21.974477v538.326599c0 5.826705 2.312672 11.419074 6.434549 15.540951a21.978571 21.978571 0 0 0 15.539928 6.433526h738.429009c47.070039 0 89.590458-27.006074 113.713878-72.226998 28.28623-52.979632 25.273616-119.014604-7.668657-168.214143zM624.523773 307.383786c0.577145 0 1.119497-0.125867 1.685385-0.169869l186.515974 153.986093H433.364035V307.383786h191.159738z m-515.28379 0h136.832412v153.816224H109.239983V307.383786z m804.544823 302.121945h-485.916948c-12.138458 0-21.974477 9.845229-21.974478 21.974477 0 12.137435 9.837042 21.976524 21.974478 21.976524h471.453538c-16.715707 29.683043-43.403532 46.671972-73.626881 46.671973H109.239983v-46.671973h91.568509c12.138458 0 21.974477-9.839089 21.974477-21.976524 0-12.129248-9.837042-21.974477-21.974477-21.974477h-91.568509V505.151012h158.806889a21.968337 21.968337 0 0 0 21.975501-21.976524V285.409308a21.971407 21.971407 0 0 0-21.975501-21.974477h-158.806889v-57.681724h329.812611c49.487088 0 97.230462 20.466124 135.067209 57.681724H411.389558a21.966291 21.966291 0 0 0-21.974477 21.974477v197.76518c0 5.834892 2.314719 11.420097 6.434549 15.541974a21.974477 21.974477 0 0 0 15.539928 6.43455h454.572056l30.928407 25.534559c14.710027 23.312962 20.380166 51.488675 16.894785 78.82016zM845.381903 818.246893H92.755544c-12.130272 0-21.974477 9.837042-21.974478 21.974477 0 12.131295 9.844206 21.975501 21.974478 21.975501h752.626359c12.137435 0 21.974477-9.844206 21.974477-21.975501 0-12.137435-9.837042-21.974477-21.974477-21.974477z"
          p-id="15831" fill="#2c2c2c"></path>
    <path d="M339.967902 609.505731h-51.267641c-12.129248 0-21.967314 9.845229-21.967314 21.974477 0 12.137435 9.838066 21.976524 21.967314 21.976524h51.267641c12.137435 0 21.974477-9.839089 21.974477-21.976524 0-12.129248-9.837042-21.974477-21.974477-21.974477z"
          p-id="15832" fill="#2c2c2c"></path>
</svg>